<?xml version="1.0"?>
<svg xmlns="http://www.w3.org/2000/svg" height="512px" viewBox="0 0 64 64" width="512px"><g><g id="Bag"><path d="m20 57.382 2.18 1.09a5.036 5.036 0 0 0 2.237.528h14.976a5 5 0 0 0 2.5-.67l16.8-9.7a2.009 2.009 0 0 0 .724-2.735 2.035 2.035 0 0 0 -2.726-.732l-10.075 5.819a3.982 3.982 0 0 1 -3.965 4.318 4.038 4.038 0 0 1 -1.042-.138l-11.925-3.196a1 1 0 0 1 .517-1.932l11.925 3.2a2 2 0 1 0 1.036-3.863l-14.92-4a5.009 5.009 0 0 0 -2.507-.021l-5.735 1.431z" data-original="#000000" class="active-path" fill="#000000"/><path d="m12 44h6v16h-6z" data-original="#000000" class="active-path" fill="#000000"/><path d="m4 46h6v12h-6z" data-original="#000000" class="active-path" fill="#000000"/><path d="m56 13h-2v23a4.948 4.948 0 0 1 -1.026 3h.026a3 3 0 0 0 3-3z" data-original="#000000" class="active-path" fill="#000000"/><path d="m47 11h-2a7 7 0 0 0 -14 0h-2a9 9 0 0 1 18 0z" data-original="#000000" class="active-path" fill="#000000"/><path d="m52 36v-23h-5v4h1a1 1 0 0 1 0 2h-4a1 1 0 0 1 0-2h1v-4h-14v4h1a1 1 0 0 1 0 2h-4a1 1 0 0 1 0-2h1v-4h-5v26h25a3 3 0 0 0 3-3z" data-original="#000000" class="active-path" fill="#000000"/></g></g> </svg>
